# xmcd CD database file
#
# Track frame offsets:
#	150
#	12963
#	35403
#	53778
#	67010
#
# Disc length: 1092 seconds
#
# Revision: 1
# Processed by: cddbd v1.5.2PL0 Copyright (c) Steve Scherf et al.
# Submitted via: CDex 1.51
#
DISCID=3c044205
DTITLE=LeAnn Rimes - Family
DYEAR=2007
DGENRE=Country
TTITLE0=Blue
TTITLE1=How Do I Live
TTITLE2=The Weight of Love
TTITLE3=I Fall To Pieces
TTITLE4=Do I Love You
EXTD=YEAR: 2007
EXTT0=
EXTT1=
EXTT2=
EXTT3=
EXTT4=
PLAYORDER=
